<?xml version="1.0" standalone="no"?>
<!DOCTYPE svg PUBLIC "-//W3C//DTD SVG 20010904//EN"
 "http://www.w3.org/TR/2001/REC-SVG-20010904/DTD/svg10.dtd">
<svg version="1.0" xmlns="http://www.w3.org/2000/svg"
 width="512.000000pt" height="512.000000pt" viewBox="0 0 512.000000 512.000000"
 preserveAspectRatio="xMidYMid meet">
<metadata>
Created by potrace 1.14, written by Peter Selinger 2001-2017
</metadata>
<g transform="translate(0.000000,512.000000) scale(0.100000,-0.100000)"
fill="#000000" stroke="none">
<path d="M1854 4781 c-14 -11 -38 -16 -72 -16 -29 1 -52 -1 -52 -5 0 -4 -15
-7 -32 -6 -22 1 -39 -6 -50 -19 -10 -11 -17 -17 -18 -12 0 4 -13 1 -30 -8 -16
-9 -30 -12 -30 -8 0 5 -6 1 -13 -7 -7 -9 -31 -22 -54 -29 -23 -8 -41 -19 -40
-24 1 -6 -5 -12 -13 -12 -26 -2 -68 -23 -77 -40 -5 -9 -16 -17 -24 -18 -23 -4
-40 -18 -34 -28 3 -5 -1 -6 -9 -3 -9 3 -16 1 -16 -5 0 -6 -7 -11 -15 -11 -8 0
-15 -5 -15 -12 0 -6 -3 -9 -6 -5 -3 3 -21 -9 -39 -27 -32 -33 -62 -51 -78 -47
-5 1 -6 -3 -3 -8 3 -5 -6 -16 -19 -25 -14 -9 -23 -21 -20 -26 4 -6 1 -10 -5
-10 -14 0 -125 -110 -125 -124 0 -6 -7 -11 -15 -11 -8 0 -19 -10 -25 -23 -5
-12 -15 -20 -22 -18 -12 5 -28 -21 -32 -54 0 -5 -8 -10 -17 -10 -8 0 -13 -4
-10 -9 3 -4 -4 -17 -16 -27 -11 -11 -27 -34 -35 -53 -8 -18 -17 -31 -20 -27
-3 3 -14 -9 -24 -27 -9 -17 -23 -31 -31 -29 -7 2 -10 1 -6 -3 3 -3 0 -18 -7
-32 -8 -15 -12 -30 -10 -34 3 -4 -6 -10 -20 -13 -14 -4 -24 -10 -24 -14 4 -24
-3 -42 -16 -42 -8 0 -17 -14 -20 -34 -5 -22 -15 -37 -31 -45 -14 -6 -24 -19
-24 -31 0 -12 -7 -20 -16 -20 -9 0 -14 -5 -12 -12 3 -7 -6 -22 -18 -33 -13
-12 -28 -34 -33 -48 -6 -15 -17 -27 -26 -27 -8 0 -14 -3 -13 -7 5 -18 -14 -53
-28 -53 -8 0 -13 -4 -10 -9 4 -5 2 -11 -3 -13 -5 -1 -11 -12 -13 -23 -1 -11
-12 -25 -23 -30 -11 -6 -20 -19 -20 -29 0 -11 -8 -22 -18 -25 -10 -4 -18 -11
-18 -16 2 -26 -12 -74 -20 -69 -5 3 -12 -3 -15 -13 -3 -10 -10 -27 -15 -38 -5
-11 -7 -31 -4 -44 3 -16 -1 -24 -14 -28 -15 -4 -17 -14 -16 -59 1 -30 -2 -57
-7 -60 -11 -7 -10 -131 0 -138 5 -3 8 -31 7 -63 -2 -64 2 -86 16 -77 10 6 10
6 14 -46 5 -56 17 -94 33 -106 8 -6 13 -18 9 -27 -3 -8 0 -20 7 -26 7 -6 12
-21 11 -33 -1 -13 5 -26 13 -29 8 -3 17 -16 19 -30 3 -13 6 -31 7 -39 2 -8 10
-14 19 -14 10 1 14 -6 12 -23 -1 -14 3 -27 11 -30 7 -2 11 -13 9 -24 -2 -10 1
-18 8 -16 7 1 13 -12 15 -30 2 -24 -1 -33 -11 -33 -14 0 -26 -45 -28 -103 0
-9 -4 -15 -9 -12 -9 6 -21 -24 -27 -67 -1 -16 -5 -43 -7 -60 -3 -18 -5 -39 -5
-46 -1 -6 -7 -11 -13 -10 -10 2 -13 -35 -14 -155 0 -137 2 -160 16 -165 11 -5
16 -21 17 -52 1 -25 4 -56 7 -70 2 -14 5 -33 5 -42 1 -10 6 -17 13 -15 7 1 12
-11 13 -28 1 -17 8 -42 15 -55 7 -14 13 -27 13 -30 -1 -3 3 -4 8 -3 9 3 13
-12 10 -31 -1 -5 1 -16 5 -25 9 -19 11 -27 13 -42 0 -5 5 -7 11 -4 5 3 11 1
11 -4 3 -26 4 -30 12 -37 4 -4 7 -15 7 -25 0 -9 5 -19 10 -21 9 -3 20 -35 22
-65 1 -7 5 -13 10 -13 5 0 7 -4 4 -9 -3 -4 3 -16 14 -26 10 -9 16 -23 13 -31
-3 -8 0 -14 7 -14 6 0 9 -4 6 -9 -3 -5 3 -20 14 -34 11 -14 20 -32 20 -39 0
-8 11 -20 25 -26 14 -7 22 -17 19 -25 -5 -15 49 -67 70 -67 8 0 18 -9 21 -20
6 -20 15 -24 47 -21 12 2 15 -4 11 -17 -4 -16 -1 -19 21 -15 17 4 26 1 26 -7
0 -8 9 -11 26 -7 16 3 28 0 31 -9 5 -13 78 -40 97 -35 5 1 15 -7 23 -18 7 -11
20 -18 28 -15 8 4 15 1 15 -7 0 -7 3 -9 7 -6 3 4 20 -2 38 -13 18 -11 35 -17
38 -13 4 3 7 1 7 -5 0 -7 9 -12 21 -12 11 0 18 -4 15 -8 -5 -9 27 -29 54 -34
8 -2 20 -12 27 -23 6 -11 16 -21 22 -21 6 -1 16 -2 21 -3 6 0 10 -8 10 -16 0
-8 9 -15 20 -15 11 0 20 -4 20 -10 0 -5 6 -7 13 -4 8 3 22 -7 33 -21 10 -14
27 -25 36 -25 10 0 18 -7 18 -16 0 -10 6 -14 15 -11 8 4 17 2 20 -3 4 -6 17
-10 30 -10 17 0 23 -4 19 -14 -4 -12 23 -23 69 -30 4 -1 11 -7 16 -14 4 -7 21
-15 37 -16 16 -2 37 -7 46 -11 10 -4 25 -5 33 -1 10 3 15 -1 15 -13 0 -14 9
-18 41 -19 23 -1 47 -6 53 -10 6 -4 28 -7 49 -7 25 1 37 -3 37 -12 0 -14 2
-14 73 -16 26 0 47 -4 47 -8 0 -4 96 -7 213 -6 174 0 217 -3 237 -15 17 -11
48 -15 100 -14 41 0 78 -2 81 -7 3 -4 16 2 29 13 25 22 22 21 135 22 44 0 85
3 90 7 6 3 28 6 50 7 45 1 85 12 85 23 0 4 17 9 38 10 66 3 122 13 122 22 0 8
54 26 110 36 13 2 27 9 31 14 5 9 26 16 82 26 15 3 27 11 27 18 0 11 16 17 80
31 8 1 16 8 18 13 2 6 10 11 18 11 15 0 55 20 64 32 3 4 23 14 44 23 22 9 45
23 53 31 8 8 18 12 23 9 4 -2 20 7 34 20 15 14 31 23 35 20 5 -2 26 11 48 30
22 19 43 31 47 28 3 -3 6 -1 6 6 0 6 12 16 26 21 14 6 28 19 31 31 3 11 11 18
17 16 16 -6 48 12 41 24 -4 5 1 9 10 9 8 0 18 7 21 15 4 8 12 15 20 15 8 0 14
7 14 16 0 9 9 18 20 21 11 3 20 10 20 15 0 13 26 38 39 38 6 0 11 7 11 16 0 9
5 14 11 12 11 -4 164 146 157 155 -7 9 26 38 39 33 8 -3 13 2 13 14 0 10 9 22
20 25 11 3 20 10 20 15 0 5 11 22 25 37 40 45 42 48 38 58 -2 6 7 15 19 20 13
6 25 19 26 29 2 11 17 33 34 50 16 17 38 50 49 74 11 23 24 42 30 42 6 0 7 5
4 10 -3 6 -1 10 4 10 6 0 11 12 11 27 0 14 3 23 7 19 10 -10 43 62 36 80 -4
10 0 12 11 8 11 -4 16 0 17 15 2 21 4 37 9 46 1 3 3 9 4 15 0 5 8 17 17 27 8
10 15 30 16 43 0 14 5 36 10 49 5 13 8 43 6 65 -3 29 0 44 12 52 24 17 26 201
2 219 -10 7 -15 23 -13 41 1 16 -2 40 -7 54 -5 14 -9 37 -9 52 0 16 -7 33 -19
41 -10 8 -16 17 -13 20 4 3 3 14 -1 24 -5 10 -9 25 -11 33 -2 8 -10 20 -19 27
-10 6 -15 16 -12 20 8 13 -19 89 -29 83 -4 -3 -12 9 -17 25 -6 17 -19 38 -30
48 -11 9 -17 17 -12 17 4 0 2 7 -5 15 -7 8 -9 15 -5 15 5 0 0 9 -11 21 -10 11
-23 35 -29 52 -6 18 -16 31 -23 30 -10 -3 -14 9 -11 33 0 3 -12 16 -28 30 -15
13 -24 24 -19 24 5 0 2 7 -5 16 -8 9 -14 24 -14 33 0 9 -5 15 -12 14 -12 -2
-35 51 -26 60 2 3 -5 8 -16 12 -12 3 -19 10 -16 15 3 4 -6 19 -20 31 -13 13
-25 31 -25 40 0 8 -5 20 -12 27 -7 7 -8 12 -3 12 4 0 -2 8 -13 19 -12 10 -19
21 -15 25 3 3 1 6 -5 6 -7 0 -12 11 -12 25 0 16 -6 25 -15 25 -16 0 -36 39
-28 53 2 4 1 7 -4 6 -22 -4 -32 2 -27 16 4 8 1 15 -6 15 -7 0 -10 6 -7 13 3 8
-8 24 -23 37 -15 13 -26 29 -23 37 3 7 -2 13 -11 13 -9 0 -16 8 -16 20 0 11
-5 20 -11 20 -7 0 -9 9 -6 21 4 15 0 23 -13 26 -12 3 -17 12 -15 24 2 10 -1
19 -7 19 -6 0 -8 11 -6 25 3 13 2 23 -1 20 -15 -8 -30 13 -33 44 -1 18 -5 34
-8 36 -3 2 -5 143 -5 314 1 278 -1 312 -16 316 -12 4 -15 16 -14 50 1 24 -2
42 -6 39 -5 -3 -9 7 -9 21 0 21 -4 26 -16 21 -12 -4 -15 -2 -10 9 3 8 1 15 -4
15 -6 0 -10 8 -10 18 -1 19 -45 56 -59 48 -4 -3 -13 6 -19 19 -7 15 -20 25
-32 25 -11 0 -23 7 -26 15 -4 9 -19 15 -40 15 -19 0 -34 4 -34 8 0 5 -24 8
-52 7 -36 -1 -59 4 -71 14 -26 22 -126 23 -150 2 -13 -11 -44 -16 -105 -18
-123 -4 -185 -13 -197 -27 -10 -13 -74 -30 -112 -29 -15 0 -23 -6 -23 -16 0
-13 -8 -17 -29 -15 -17 1 -32 -4 -35 -11 -4 -10 -13 -12 -35 -5 -24 7 -30 5
-34 -11 -4 -15 -12 -19 -34 -16 -15 2 -41 0 -58 -5 -43 -13 -85 -16 -85 -5 0
4 -5 5 -12 1 -19 -12 -152 -10 -164 2 -13 12 -134 9 -161 -3 -10 -5 -48 -8
-85 -7 -52 1 -68 -2 -68 -12 0 -20 -20 -17 -40 6 -11 12 -21 17 -24 11 -4 -6
-13 -8 -21 -5 -8 4 -13 10 -10 14 3 5 -2 13 -11 18 -13 7 -18 26 -20 78 -2 37
-7 75 -10 84 -4 8 -8 22 -8 30 -1 8 -7 14 -13 13 -8 -2 -13 7 -13 22 0 14 -4
25 -10 25 -5 0 -10 6 -10 13 0 6 -18 21 -40 31 -22 11 -40 25 -40 31 0 8 -17
11 -47 11 -29 -1 -55 5 -66 13 -25 21 -40 21 -63 2z"/>
</g>
</svg>
